<svg width="16" height="16" viewBox="0 0 16 16" fill="none" xmlns="http://www.w3.org/2000/svg">
<path opacity="0.4" d="M14.7042 4.6319C14.6209 4.80505 14.5075 4.96734 14.364 5.1109C14.125 5.3499 13.834 5.50532 13.5275 5.57715C15.083 8.08421 14.7725 11.4199 12.5962 13.5962C12.3033 13.8891 12.3033 14.3639 12.5962 14.6568C12.8891 14.9497 13.364 14.9497 13.6569 14.6568C16.3806 11.9331 16.7297 7.73387 14.7042 4.6319Z" fill="black"/>
<path fill-rule="evenodd" clip-rule="evenodd" d="M12.5962 4.40379C10.0578 1.86539 5.94221 1.86539 3.40381 4.40379C0.865398 6.9422 0.865398 11.0578 3.40381 13.5962C3.6967 13.8891 3.6967 14.3639 3.40381 14.6568C3.11091 14.9497 2.63604 14.9497 2.34315 14.6568C-0.781049 11.5326 -0.781048 6.46733 2.34315 3.34313C5.46734 0.218939 10.5327 0.218939 13.6569 3.34313C13.9497 3.63603 13.9497 4.1109 13.6569 4.40379C13.364 4.69669 12.8891 4.69669 12.5962 4.40379Z" fill="black"/>
<circle cx="8" cy="9" r="3" fill="black"/>
</svg>
