<svg width="16" height="17" viewBox="0 0 16 17" fill="none" xmlns="http://www.w3.org/2000/svg">
<path opacity="0.15" d="M15.9774 15.0106C15.9774 15.5629 15.5294 16.0107 14.9771 16.0107L6.18439 16.0097L15.6173 12.1031C15.7461 12.0497 15.8658 11.9835 15.9768 11.9081L15.9774 15.0106Z" fill="black"/>
<path opacity="0.3" d="M15.7582 9.89481C15.9695 10.405 15.7274 10.9901 15.2172 11.2014L7.08826 14.5677L14.3138 7.34305C14.4119 7.24499 14.4973 7.13905 14.5707 7.02762L15.7582 9.89481Z" fill="black"/>
<path opacity="0.45" d="M13.5978 5.23846C13.9882 5.62887 13.9879 6.26198 13.5978 6.65253L7.38489 12.8644L11.2872 3.44452C11.3413 3.31401 11.3802 3.18058 11.4054 3.04706L13.5978 5.23846Z" fill="black"/>
<path opacity="0.6" d="M9.82028 1.76465C10.3302 1.97615 10.5726 2.56119 10.3613 3.07129L6.99997 11.1855V1C6.99997 0.854439 6.98262 0.712898 6.95309 0.576172L9.82028 1.76465Z" fill="black"/>
<path d="M5 0C5.55228 6.44255e-08 6 0.447715 6 1V13C6 14.6569 4.65685 16 3 16C1.34315 16 0 14.6569 0 13V1C0 0.447715 0.447715 1.61064e-08 1 0H5ZM3 12C2.44772 12 2 12.4477 2 13C2 13.5523 2.44772 14 3 14C3.55228 14 4 13.5523 4 13C4 12.4477 3.55228 12 3 12Z" fill="black"/>
</svg>
