<svg width="16" height="16" viewBox="0 0 16 16" fill="none" xmlns="http://www.w3.org/2000/svg">
<path d="M7.77172 0.144435C7.69667 0.162031 7.62317 0.188424 7.55279 0.223615L0.894427 3.55279C0.6641 3.66796 0.577727 3.91658 0.635309 4.13183C0.669858 4.26098 0.756231 4.37812 0.894428 4.44722L7.55279 7.7764C7.58798 7.794 7.62395 7.80939 7.6605 7.82259C7.91638 7.91497 8.20088 7.89957 8.44721 7.7764L15.1056 4.44722C15.1516 4.42419 15.1919 4.39582 15.2265 4.36344C15.4683 4.13682 15.428 3.71402 15.1056 3.55279L8.44721 0.223615C8.23607 0.118042 7.99689 0.0916488 7.77172 0.144435Z" fill="black"/>
<path d="M2.88197 6.55902L0.894428 7.55279C0.525904 7.73705 0.525904 8.26296 0.894428 8.44722L7.55279 11.7764C7.83431 11.9172 8.16569 11.9172 8.44721 11.7764L15.1056 8.44722C15.4741 8.26296 15.4741 7.73705 15.1056 7.55279L13.118 6.55903L8.89444 8.67083C8.33138 8.95236 7.66864 8.95235 7.10558 8.67083L2.88197 6.55902Z" fill="black"/>
<path d="M0.894436 11.5528L2.88198 10.559L7.10559 12.6708C7.66864 12.9524 8.33139 12.9524 8.89444 12.6708L13.118 10.559L15.1056 11.5528C15.4741 11.7371 15.4741 12.263 15.1056 12.4472L8.44722 15.7764C8.16569 15.9172 7.83432 15.9172 7.55279 15.7764L0.894436 12.4472C0.525912 12.263 0.525911 11.7371 0.894436 11.5528Z" fill="black"/>
</svg>
